<?xml version="1.0" encoding="utf-8"?>
<!-- Generator: Adobe Illustrator 23.0.4, SVG Export Plug-In . SVG Version: 6.00 Build 0)  -->
<svg version="1.1" id="레이어_1" xmlns="http://www.w3.org/2000/svg" xmlns:xlink="http://www.w3.org/1999/xlink" x="0px"
	 y="0px" viewBox="0 0 262.2 25" style="enable-background:new 0 0 262.2 25;" xml:space="preserve">
<style type="text/css">
	.st0{fill:#231815;}
</style>
<g>
	<path class="st0" d="M189.7,0c-8.3,0-12.5,5.7-12.5,12.5c0,6.7,4.2,12.5,12.5,12.5c8.3,0,12.6-5.7,12.6-12.5
		C202.3,5.8,198,0,189.7,0z M189.7,23.8c-4.7,0-7.1-5.2-7.1-11.3c0-6.1,2.4-11.3,7.1-11.3c4.8,0,7.2,5.2,7.2,11.3
		C196.9,18.6,194.5,23.8,189.7,23.8z"/>
	<path class="st0" d="M163.2,0h-9.2v2.9l0,19.1V25l2.4,0h2.5l0-2.9l0-7.1l3.4,0c6,0,10-3,10-7.5C172.2,3,168.6,0,163.2,0z
		 M162.2,13.8h-3.4l0-12.6h4.3c2.4,0,4,2.5,4,6.3C167.1,11.3,165.2,13.8,162.2,13.8z"/>
	<path class="st0" d="M147.6,22.1L137.6,0h-1.2l-9.1,24.1c-0.1,0.2-0.1,0.3-0.1,0.3c0,0.1,0,0.1-0.2,0.5h0.8l0.8,0l1-2.8
		c0-0.2,0.1-0.4,0.2-0.6l1-2.7l2.2-6l2.4-6.7l2.9,6.6v0l1.4,3.2l1.4,3.2l1.4,3.3c0,0,0,0.1,0,0.1l0.8,1.7l0.2,0.5h2.7l2.6,0h0v-0.5
		h0C148.7,24.4,148.2,23.5,147.6,22.1z"/>
	<g>
		<path class="st0" d="M117.3,17.2l-5.4-8.1l5.8-6.5c1.1-1.2,1.8-2,1.8-2c0,0.1,0.5-0.5,0.5-0.5h-1.8l-10,11.4l6.1,9.2
			c2.1,3.1,4.5,4.3,8.7,4.3l1.6,0v-0.9h-0.2C122.5,24.1,120.6,22.1,117.3,17.2z"/>
		<polygon class="st0" points="108.1,2.9 108.1,0 106.5,0 106.5,0 105.6,0 103.2,0 103.2,2.9 103.2,22.1 103.2,25 105.6,25 
			108.1,25 108.1,22.1 108.1,11.5 		"/>
	</g>
	<path class="st0" d="M69,0l-4.2,0h-2.5l-2.4,0v2.9l0,19.1V25l2.4,0h2.5l5.6,0c7.6,0,12.7-5,12.7-12.5C83.1,5,77.5,0,69,0z
		 M70.4,23.8l-5.6,0l0-22.6l4.2,0c5.6,0,9.3,4.5,9.3,11.3C78.2,19.3,75.1,23.8,70.4,23.8z"/>
	<path class="st0" d="M0.4,0l0,2.9l0,19.1l0,2.9l2.4,0h2.5v-2.9l0-8.3h4.1l4.4,0v-0.6v-0.6h-0.1h-0.4h-0.1H9.4c0,0,0,0-0.1,0l-4.1,0
		l0-11.2h6.8l5.1,0h0.5V0.9V0.6V0H9.9H0.4z"/>
	<polygon class="st0" points="22.8,2.9 22.8,25 22.9,25 27.7,25 27.7,22.1 27.7,2.8 27.7,0 22.8,0 	"/>
	<polygon class="st0" points="53.2,2.9 53.2,0.6 53.2,0.3 53.2,0 51.8,0 51.8,2.9 51.8,17.7 38.8,0 35.9,0 35.2,0 34.4,0 34.4,2.9 
		34.4,21.4 34.4,25 35.2,25 35.9,25 35.9,21.4 35.9,4.1 49.5,22.6 51.3,25 53.2,25 53.2,20.9 	"/>
	<path class="st0" d="M219.9,0c-8.3,0-12.5,5.7-12.5,12.5c0,6.7,4.2,12.5,12.5,12.5c8.3,0,12.6-5.7,12.6-12.5
		C232.4,5.8,228.2,0,219.9,0z M219.9,23.8c-4.7,0-7.1-5.2-7.1-11.3c0-6.1,2.4-11.3,7.1-11.3c4.8,0,7.2,5.2,7.2,11.3
		C227,18.6,224.6,23.8,219.9,23.8z"/>
	<path class="st0" d="M262.1,24.1c-1.6,0-1.8-0.1-3.3-2l-6.6-8.2c3.7-1,6-3.5,6-6.8c0-4.2-3.7-7-9.4-7l-0.9,0h-8.7v2.9l0,19.1V25
		l2.4,0h2.5l0-2.9l0-7.7l2.9,0l5.4,6.8c3,3.7,3.3,3.9,8.3,3.9h1.6v-0.9H262.1z M247.7,13.2l-1.8,0h-2l0-12l4.7,0
		c2.6,0,4.4,2.3,4.4,5.8C253.1,10.7,250.9,13.2,247.7,13.2z"/>
</g>
</svg>
